HIERARCHY
ROOT Pelvis
{
	OFFSET 0.000000 0.941512 0.000000
	CHANNELS 6 Xposition Yposition Zposition Zrotation Yrotation Xrotation 
	JOINT Pelvis_L_Hip
	{
		OFFSET 0.000000 0.000000 0.000000
		CHANNELS 3 Zrotation Yrotation Xrotation
		JOINT L_Hip
		{
			OFFSET 0.062321 -0.080322 -0.016990
			CHANNELS 3 Zrotation Yrotation Xrotation
			JOINT L_Knee
			{
				OFFSET 0.093051 -0.381305 -0.029784
				CHANNELS 3 Zrotation Yrotation Xrotation
				JOINT L_Ankle
				{
					OFFSET -0.010371 -0.431000 -0.033614
					CHANNELS 3 Zrotation Yrotation Xrotation
					End Site #name: L_Foot
					{
						OFFSET 0.069299 -0.038670 0.119418
					}
				}
			}
		}
	}
	JOINT Pelvis_R_Hip
	{
		OFFSET 0.000000 0.000000 0.000000
		CHANNELS 3 Zrotation Yrotation Xrotation
		JOINT R_Hip
		{
			OFFSET -0.055334 -0.094904 -0.002373
			CHANNELS 3 Zrotation Yrotation Xrotation
			JOINT R_Knee
			{
				OFFSET -0.064207 -0.384370 -0.019592
				CHANNELS 3 Zrotation Yrotation Xrotation
				JOINT R_Ankle
				{
					OFFSET 0.025418 -0.419734 -0.065953
					CHANNELS 3 Zrotation Yrotation Xrotation
					End Site #name: R_Foot
					{
						OFFSET -0.057233 -0.039888 0.132134
					}
				}
			}
		}
	}
	JOINT Pelvis_Spine1
	{
		OFFSET 0.000000 0.000000 0.000000
		CHANNELS 3 Zrotation Yrotation Xrotation
		JOINT Spine1
		{
			OFFSET -0.005562 0.124093 -0.043360
			CHANNELS 3 Zrotation Yrotation Xrotation
			JOINT Spine2
			{
				OFFSET 0.012244 0.139499 0.029894
				CHANNELS 3 Zrotation Yrotation Xrotation
				JOINT Spine3
				{
					OFFSET -0.002556 0.056561 0.009225
					CHANNELS 3 Zrotation Yrotation Xrotation
					JOINT Spine3_Neck
					{
						OFFSET 0.000000 0.000000 0.000000
						CHANNELS 3 Zrotation Yrotation Xrotation
						JOINT Neck
						{
							OFFSET -0.005205 0.217920 -0.024551
							CHANNELS 3 Zrotation Yrotation Xrotation
							End Site #name: Head
							{
								OFFSET 0.002365 0.091850 0.046637
							}
						}
					}
					JOINT Spine3_L_Collar
					{
						OFFSET 0.000000 0.000000 0.000000
						CHANNELS 3 Zrotation Yrotation Xrotation
						JOINT L_Collar
						{
							OFFSET 0.072225 0.116603 -0.009480
							CHANNELS 3 Zrotation Yrotation Xrotation
							JOINT L_Shoulder
							{
								OFFSET 0.115937 -0.058643 -0.021018
								CHANNELS 3 Zrotation Yrotation Xrotation
								JOINT L_Elbow
								{
									OFFSET 0.021994 -0.254722 -0.024492
									CHANNELS 3 Zrotation Yrotation Xrotation
									End Site #name: L_Wrist
									{
										OFFSET 0.048810 -0.240214 0.103329
									}
								}
							}
						}
					}
					JOINT Spine3_R_Collar
					{
						OFFSET 0.000000 0.000000 0.000000
						CHANNELS 3 Zrotation Yrotation Xrotation
						JOINT R_Collar
						{
							OFFSET -0.073372 0.120704 -0.024611
							CHANNELS 3 Zrotation Yrotation Xrotation
							JOINT R_Shoulder
							{
								OFFSET -0.108089 -0.054969 -0.020504
								CHANNELS 3 Zrotation Yrotation Xrotation
								JOINT R_Elbow
								{
									OFFSET -0.033684 -0.260739 0.009889
									CHANNELS 3 Zrotation Yrotation Xrotation
									End Site #name: R_Wrist
									{
										OFFSET -0.067980 -0.232763 0.118463
									}
								}
							}
						}
					}
				}
			}
		}
	}
}
MOTION
Frames: 15
Frame Time: 0.041667
0.000000 0.945175 0.000000 -4.484645 -8.472199 -3.314562 0.000000 0.000000 0.000000 1.912701 -0.197977 -0.346813 4.032162 -0.493061 2.595292 -2.044682 -3.509956 1.684758 0.000000 0.000000 0.000000 2.258992 -0.971310 4.731116 -2.500337 0.097969 -3.293902 0.359873 -8.769461 7.542363 0.000000 0.000000 0.000000 4.358066 -0.836214 -0.680662 -5.639280 1.088192 1.804782 3.712320 5.341846 -1.173549 0.000000 0.000000 0.000000 6.564887 -3.997376 7.132706 0.000000 0.000000 0.000000 21.737616 -23.277205 -14.508418 -33.519183 -2.129482 -13.880622 -2.048977 -32.973208 -79.001075 0.000000 0.000000 0.000000 -60.573432 34.008864 -37.480407 -14.616565 -0.526578 -50.579309 -77.264722 -45.089792 -16.622827 
-0.001239 0.944987 0.000255 -4.484544 -8.227747 -3.520160 0.000000 0.000000 0.000000 1.995665 -0.214107 -0.396180 4.042703 -0.517872 3.031431 -2.017021 -3.765274 1.485187 0.000000 0.000000 0.000000 2.323805 -1.023585 4.990481 -2.431022 0.096866 -3.211975 0.228557 -8.901471 7.382003 0.000000 0.000000 0.000000 3.344629 -0.602022 -0.929875 -4.955421 1.038900 2.631136 4.315956 5.532357 -1.651301 0.000000 0.000000 0.000000 6.057986 -3.617727 6.214907 0.000000 0.000000 0.000000 22.153870 -25.026573 -16.020964 -34.068718 -2.889683 -15.626678 -2.813140 -33.649447 -78.112338 0.000000 0.000000 0.000000 -59.771850 34.729018 -38.344874 -11.981178 0.846898 -49.713969 -78.756058 -47.290279 -18.903026 
-0.002617 0.944783 0.000502 -4.497541 -8.042077 -3.722242 0.000000 0.000000 0.000000 2.109816 -0.209256 -0.346693 4.044164 -0.532771 3.306337 -2.000793 -3.995524 1.323020 0.000000 0.000000 0.000000 2.388472 -1.076743 5.253851 -2.335327 0.090537 -3.150576 0.113352 -8.964746 7.188100 0.000000 0.000000 0.000000 2.415980 -0.392801 -1.139562 -4.216638 0.948874 3.207372 4.679887 5.559232 -1.780986 0.000000 0.000000 0.000000 5.336648 -3.118019 5.189407 0.000000 0.000000 0.000000 22.415112 -25.918023 -16.816666 -33.861214 -2.981835 -15.849273 -4.662302 -35.010332 -75.767792 0.000000 0.000000 0.000000 -57.706695 35.170311 -38.027387 -9.281550 2.188772 -48.920331 -78.002574 -49.467405 -23.666232 
-0.003926 0.944627 0.000569 -4.514601 -7.926675 -3.860182 0.000000 0.000000 0.000000 2.216267 -0.187082 -0.222481 4.070547 -0.535810 3.314698 -2.036572 -4.186378 1.276950 0.000000 0.000000 0.000000 2.441566 -1.111965 5.421949 -2.232470 0.083104 -3.088040 0.035321 -8.967437 7.017304 0.000000 0.000000 0.000000 1.822937 -0.260637 -1.275361 -3.682060 0.865565 3.452607 4.731506 5.372986 -1.542560 0.000000 0.000000 0.000000 4.608161 -2.627043 4.101501 0.000000 0.000000 0.000000 22.339427 -25.956130 -16.852575 -33.226213 -2.533072 -14.847885 -6.805447 -36.428741 -73.073869 0.000000 0.000000 0.000000 -55.297444 35.100707 -36.691259 -7.780686 2.897808 -48.435392 -76.094879 -50.826644 -28.430814 
-0.005116 0.944596 0.000169 -4.565767 -7.985835 -3.851521 0.000000 0.000000 0.000000 2.329211 -0.175428 -0.142266 4.132026 -0.533146 3.145008 -2.088982 -4.205742 1.358999 0.000000 0.000000 0.000000 2.532637 -1.114521 5.387152 -2.167179 0.077433 -3.055401 0.041290 -8.875439 6.941100 0.000000 0.000000 0.000000 1.741794 -0.238590 -1.338618 -3.608565 0.844191 3.365966 4.558519 5.076539 -1.070322 0.000000 0.000000 0.000000 4.155043 -2.304877 3.047601 0.000000 0.000000 0.000000 21.834677 -25.288795 -16.242720 -32.428416 -1.808620 -13.150718 -8.112425 -37.180138 -71.411871 0.000000 0.000000 0.000000 -53.817452 34.516973 -35.015589 -8.444409 2.551960 -48.436808 -75.476200 -51.177317 -29.819329 
-0.006195 0.944735 -0.000870 -4.679700 -8.277587 -3.684260 0.000000 0.000000 0.000000 2.485164 -0.193709 -0.184351 4.200713 -0.530677 2.955549 -2.102050 -3.964666 1.522482 0.000000 0.000000 0.000000 2.710095 -1.090470 5.159879 -2.174461 0.072094 -3.124812 0.158092 -8.665836 6.996871 0.000000 0.000000 0.000000 2.180424 -0.332156 -1.281978 -4.077749 0.900089 2.952879 4.287951 4.818201 -0.563261 0.000000 0.000000 0.000000 4.193147 -2.266882 2.176711 0.000000 0.000000 0.000000 21.164337 -24.094812 -15.188672 -31.619358 -1.069360 -11.345920 -8.047097 -37.041324 -71.373054 0.000000 0.000000 0.000000 -54.036615 33.645172 -33.656492 -11.427509 1.049492 -48.651046 -76.916564 -50.441864 -26.644232 
-0.007156 0.945004 -0.002473 -4.862006 -8.736409 -3.412822 0.000000 0.000000 0.000000 2.711807 -0.243034 -0.349460 4.239406 -0.529715 2.842497 -2.061814 -3.515685 1.715586 0.000000 0.000000 0.000000 2.973345 -1.052270 4.814055 -2.230249 0.064825 -3.288543 0.353364 -8.378863 7.148026 0.000000 0.000000 0.000000 3.001018 -0.514542 -1.114982 -4.944723 1.005445 2.294048 3.983899 4.646949 -0.122353 0.000000 0.000000 0.000000 4.674327 -2.482597 1.614297 0.000000 0.000000 0.000000 20.728974 -22.592542 -13.934024 -30.769344 -0.506564 -9.938273 -7.028444 -36.283149 -72.452691 0.000000 0.000000 0.000000 -55.796246 32.739131 -32.857179 -15.956472 -1.228958 -48.283971 -78.990651 -48.511588 -20.595693 
-0.007969 0.945329 -0.004319 -5.076052 -9.219915 -3.161702 0.000000 0.000000 0.000000 2.980880 -0.298671 -0.538161 4.238213 -0.530206 2.827849 -1.982124 -3.009761 1.875711 0.000000 0.000000 0.000000 3.263432 -1.015409 4.469415 -2.284357 0.058610 -3.433803 0.555540 -8.076085 7.294876 0.000000 0.000000 0.000000 3.974768 -0.736202 -0.890837 -5.967728 1.129987 1.623738 3.675575 4.496926 0.175193 0.000000 0.000000 0.000000 5.308227 -2.803240 1.464474 0.000000 0.000000 0.000000 20.700034 -21.204613 -12.835328 -29.816796 -0.155363 -9.007893 -5.594169 -35.099372 -73.937542 0.000000 0.000000 0.000000 -58.371968 31.969672 -32.557046 -20.719610 -3.501193 -46.710708 -79.704939 -45.843712 -14.872122 
-0.008652 0.945617 -0.006019 -5.253088 -9.602383 -3.061343 0.000000 0.000000 0.000000 3.213531 -0.330515 -0.633348 4.221532 -0.533516 2.898976 -1.894122 -2.599400 1.965686 0.000000 0.000000 0.000000 3.480276 -0.989321 4.227573 -2.276789 0.058256 -3.414561 0.688805 -7.814170 7.328981 0.000000 0.000000 0.000000 4.821643 -0.929608 -0.702750 -6.908468 1.263702 1.265087 3.379905 4.308226 0.294638 0.000000 0.000000 0.000000 5.764808 -3.056212 1.672387 0.000000 0.000000 0.000000 20.852100 -20.290855 -12.145112 -28.717239 -0.000342 -8.539098 -4.007244 -33.596504 -75.454799 0.000000 0.000000 0.000000 -60.826777 31.391476 -32.482947 -24.482239 -5.023984 -43.960317 -78.610909 -43.647339 -11.932227 
-0.009286 0.945797 -0.007380 -5.351141 -9.816354 -3.172111 0.000000 0.000000 0.000000 3.359888 -0.328562 -0.597025 4.214103 -0.542499 3.062970 -1.820088 -2.361218 1.976070 0.000000 0.000000 0.000000 3.579161 -0.979746 4.136526 -2.187350 0.066347 -3.168188 0.711993 -7.640531 7.210053 0.000000 0.000000 0.000000 5.285691 -1.037979 -0.573901 -7.647039 1.409616 1.365108 3.180974 4.125376 0.253240 0.000000 0.000000 0.000000 5.906941 -3.156713 2.042058 0.000000 0.000000 0.000000 20.809484 -19.923497 -11.874244 -27.519966 -0.015493 -8.506676 -2.316983 -31.925197 -77.163168 0.000000 0.000000 0.000000 -62.438951 31.043592 -32.454032 -26.696527 -5.518358 -40.000121 -76.775391 -42.852510 -12.390893 
-0.009989 0.945858 -0.008464 -5.367514 -9.827612 -3.424992 0.000000 0.000000 0.000000 3.421707 -0.313352 -0.518396 4.221477 -0.557191 3.310898 -1.779821 -2.301353 1.937137 0.000000 0.000000 0.000000 3.583854 -0.982831 4.159362 -2.040538 0.078739 -2.779197 0.629118 -7.610189 6.998540 0.000000 0.000000 0.000000 5.193278 -1.034318 -0.433975 -8.157324 1.549618 1.747795 3.181167 4.097945 0.106623 0.000000 0.000000 0.000000 5.802171 -3.127421 2.403634 0.000000 0.000000 0.000000 20.338245 -19.855199 -11.782547 -26.348809 -0.159740 -8.845710 -0.535639 -30.427881 -79.464063 0.000000 0.000000 0.000000 -62.751379 30.894152 -32.294270 -27.721892 -5.181014 -34.440504 -74.854578 -43.451985 -15.771591 
-0.010809 0.945819 -0.009505 -5.354230 -9.618208 -3.662139 0.000000 0.000000 0.000000 3.464221 -0.323586 -0.556299 4.234760 -0.574494 3.603550 -1.787469 -2.389908 1.892691 0.000000 0.000000 0.000000 3.586675 -0.989762 4.200330 -1.882724 0.087685 -2.414007 0.466902 -7.780140 6.801579 0.000000 0.000000 0.000000 4.641744 -0.950613 -0.180022 -8.564636 1.663661 2.051399 3.362725 4.288463 -0.064094 0.000000 0.000000 0.000000 5.658667 -3.071777 2.643856 0.000000 0.000000 0.000000 19.590274 -19.643163 -11.516308 -25.378421 -0.402074 -9.499901 1.230990 -29.449188 -82.618055 0.000000 0.000000 0.000000 -61.835302 30.809753 -31.852094 -28.283310 -4.415739 -27.364687 -73.103028 -44.662968 -20.366875 
-0.011735 0.945713 -0.010637 -5.348873 -9.224019 -3.754625 0.000000 0.000000 0.000000 3.530168 -0.372757 -0.762033 4.249282 -0.586305 3.800057 -1.862444 -2.592640 1.899785 0.000000 0.000000 0.000000 3.639068 -0.990651 4.179250 -1.743660 0.086396 -2.208774 0.265037 -8.137647 6.691871 0.000000 0.000000 0.000000 3.854420 -0.833119 0.223129 -8.920420 1.718527 1.948248 3.555804 4.616576 -0.114392 0.000000 0.000000 0.000000 5.579355 -3.042806 2.723410 0.000000 0.000000 0.000000 18.962596 -18.994474 -10.893456 -24.772855 -0.720806 -10.436831 2.923065 -29.068053 -86.429230 0.000000 0.000000 0.000000 -60.115310 30.541989 -30.883672 -28.899517 -3.622856 -20.190546 -71.828639 -45.595789 -23.985409 
-0.012750 0.945588 -0.011819 -5.379112 -8.771470 -3.673894 0.000000 0.000000 0.000000 3.652079 -0.441322 -1.041598 4.258671 -0.583959 3.757499 -2.009708 -2.849557 2.004021 0.000000 0.000000 0.000000 3.759895 -0.983116 4.076911 -1.643038 0.074711 -2.202449 0.080402 -8.561434 6.683752 0.000000 0.000000 0.000000 3.080082 -0.718284 0.673828 -9.240184 1.714055 1.448046 3.623793 4.923630 0.002042 0.000000 0.000000 0.000000 5.554316 -3.038808 2.719216 0.000000 0.000000 0.000000 18.802489 -18.066777 -10.086778 -24.563486 -1.087334 -11.574240 4.533336 -28.712341 -90.291835 0.000000 0.000000 0.000000 -58.446966 30.011983 -29.575401 -29.664163 -3.055353 -14.813757 -71.844624 -45.769697 -24.414820 
-0.013841 0.945504 -0.012924 -5.480527 -8.438697 -3.481141 0.000000 0.000000 0.000000 3.869478 -0.500868 -1.260477 4.250368 -0.566299 3.478062 -2.191934 -3.054670 2.201980 0.000000 0.000000 0.000000 3.971242 -0.975394 3.932941 -1.598042 0.058221 -2.353225 -0.025086 -8.879727 6.755086 0.000000 0.000000 0.000000 2.494940 -0.624867 0.987766 -9.539050 1.692806 0.867342 3.572945 5.117839 0.180963 0.000000 0.000000 0.000000 5.587793 -3.075608 2.848117 0.000000 0.000000 0.000000 19.106751 -17.348363 -9.483112 -24.597897 -1.472230 -12.792944 5.991575 -27.785876 -93.321739 0.000000 0.000000 0.000000 -57.777178 29.492999 -28.649303 -30.533755 -2.831004 -12.194105 -73.687290 -45.038083 -20.644862 
